<svg width="729" height="774" viewBox="0 0 729 774" fill="none" xmlns="http://www.w3.org/2000/svg">
<rect width="728.22" height="773.6" fill="#EBAA0F"/>
<path d="M139.22 471.7C135.58 467.14 136.3 462.72 138.2 460.17C139.98 457.79 146.68 456.08 149.95 459.68C245.99 565.46 406.21 570.69 501.84 464.87C517.26 447.81 530.83 430.18 541.09 409.6C524.59 402.34 508.84 404.25 490.99 407.29C513.5 376.43 555.02 370.34 587.49 387.8C621.87 406.29 635.57 447.26 616.25 482.94C611.26 465.08 605.06 450.4 592.55 438.67C576.07 464.35 559.52 486.47 538.01 507.25C474.32 568.79 383.13 595.58 296.17 574.92C233.12 559.94 179.48 522.08 139.22 471.7Z" fill="#C42525"/>
<path d="M464.49 337.23C494.794 337.23 519.36 312.664 519.36 282.36C519.36 252.056 494.794 227.49 464.49 227.49C434.186 227.49 409.62 252.056 409.62 282.36C409.62 312.664 434.186 337.23 464.49 337.23Z" fill="#C42525"/>
<path d="M249.43 336.94C279.651 336.94 304.15 312.441 304.15 282.22C304.15 251.999 279.651 227.5 249.43 227.5C219.209 227.5 194.71 251.999 194.71 282.22C194.71 312.441 219.209 336.94 249.43 336.94Z" fill="#C42525"/>
</svg>
